<?xml version="1.0" encoding="UTF-8" standalone="no"?>
<svg
   xmlns:dc="http://purl.org/dc/elements/1.1/"
   xmlns:cc="http://creativecommons.org/ns#"
   xmlns:rdf="http://www.w3.org/1999/02/22-rdf-syntax-ns#"
   xmlns:svg="http://www.w3.org/2000/svg"
   xmlns="http://www.w3.org/2000/svg"
   xmlns:sodipodi="http://sodipodi.sourceforge.net/DTD/sodipodi-0.dtd"
   xmlns:inkscape="http://www.inkscape.org/namespaces/inkscape"
   version="1.1"
   width="80"
   height="80"
   id="svg18"
   sodipodi:docname="king_light.svg"
   inkscape:version="0.92.4 (5da689c313, 2019-01-14)">
  <metadata
     id="metadata24">
    <rdf:RDF>
      <cc:Work
         rdf:about="">
        <dc:format>image/svg+xml</dc:format>
        <dc:type
           rdf:resource="http://purl.org/dc/dcmitype/StillImage" />
        <dc:title></dc:title>
      </cc:Work>
    </rdf:RDF>
  </metadata>
  <defs
     id="defs22" />
  <sodipodi:namedview
     pagecolor="#ffffff"
     bordercolor="#666666"
     borderopacity="1"
     objecttolerance="10"
     gridtolerance="10"
     guidetolerance="10"
     inkscape:pageopacity="0"
     inkscape:pageshadow="2"
     inkscape:window-width="1920"
     inkscape:window-height="1017"
     id="namedview20"
     showgrid="false"
     inkscape:pagecheckerboard="true"
     inkscape:zoom="5.2444444"
     inkscape:cx="22.5"
     inkscape:cy="22.5"
     inkscape:window-x="-8"
     inkscape:window-y="-8"
     inkscape:window-maximized="1"
     inkscape:current-layer="svg18" />
  <g
     style="fill:none;fill-opacity:1;fill-rule:evenodd;stroke:#000000;stroke-width:1.5;stroke-linecap:round;stroke-linejoin:round;stroke-miterlimit:4;stroke-dasharray:none;stroke-opacity:1"
     id="g16"
     transform="matrix(2.0030647,0,0,2.0030647,-5.0689557,-5.7162274)">
    <path
       d="M 22.5,11.63 V 6"
       style="fill:none;stroke:#000000;stroke-linejoin:miter"
       id="path2"
       inkscape:connector-curvature="0" />
    <path
       d="m 20,8 h 5"
       style="fill:none;stroke:#000000;stroke-linejoin:miter"
       id="path4"
       inkscape:connector-curvature="0" />
    <path
       d="m 22.5,25 c 0,0 4.5,-7.5 3,-10.5 0,0 -1,-2.5 -3,-2.5 -2,0 -3,2.5 -3,2.5 -1.5,3 3,10.5 3,10.5"
       style="fill:#ffffff;stroke:#000000;stroke-linecap:butt;stroke-linejoin:miter"
       id="path6"
       inkscape:connector-curvature="0" />
    <path
       d="m 12.5,37 c 5.5,3.5 14.5,3.5 20,0 v -7 c 0,0 9,-4.5 6,-10.5 -4,-6.5 -13.5,-3.5 -16,4 V 27 23.5 C 20,16 10.5,13 6.5,19.5 c -3,6 6,10.5 6,10.5 v 7"
       style="fill:#ffffff;stroke:#000000"
       id="path8"
       inkscape:connector-curvature="0" />
    <path
       d="M 12.5,30 C 18,27 27,27 32.5,30"
       style="fill:none;stroke:#000000"
       id="path10"
       inkscape:connector-curvature="0" />
    <path
       d="m 12.5,33.5 c 5.5,-3 14.5,-3 20,0"
       style="fill:none;stroke:#000000"
       id="path12"
       inkscape:connector-curvature="0" />
    <path
       d="M 12.5,37 C 18,34 27,34 32.5,37"
       style="fill:none;stroke:#000000"
       id="path14"
       inkscape:connector-curvature="0" />
  </g>
</svg>
